<svg width="20" height="29" viewBox="0 0 20 29" fill="none" xmlns="http://www.w3.org/2000/svg">
<path d="M9.78366 0C4.38899 0 0 4.38899 0 9.78366C0 16.5642 9.79328 28.1467 9.79328 28.1467C9.79328 28.1467 19.5673 16.2307 19.5673 9.78366C19.5673 4.38899 15.1785 0 9.78366 0ZM12.7356 12.6483C11.9216 13.4621 10.8527 13.8691 9.78366 13.8691C8.71476 13.8691 7.64551 13.4621 6.8319 12.6483C5.20415 11.0207 5.20415 8.37237 6.8319 6.74463C7.62009 5.95609 8.66855 5.5218 9.78366 5.5218C10.8988 5.5218 11.9471 5.95626 12.7356 6.74463C14.3633 8.37237 14.3633 11.0207 12.7356 12.6483Z" fill="#B11E46"/>
</svg>
