<svg width="21" height="21" viewBox="0 0 21 21" fill="none" xmlns="http://www.w3.org/2000/svg">
<path d="M18.6833 14.4937H7.27606C6.69855 14.4937 6.22852 14.0233 6.22852 13.4445C6.22852 12.8662 6.69855 12.3958 7.27606 12.3958H11.6032L10.6902 11.1653H7.27606C6.02016 11.1653 4.99805 12.1878 4.99805 13.4445C4.99805 14.7017 6.02016 15.7242 7.27606 15.7242H18.6833C19.2826 15.7242 19.7702 16.2123 19.7702 16.8127C19.7702 17.4132 19.2826 17.9013 18.6833 17.9013H6.1432C6.20936 18.2951 6.21375 18.7121 6.1432 19.1317H18.6833C19.961 19.1317 21.0007 18.0916 21.0007 16.8127C21.0007 15.5339 19.961 14.4937 18.6833 14.4937Z" fill="white"/>
<path d="M2.48165 16.0332C1.11329 16.0332 0 17.1473 0 18.5166C0 19.886 1.11329 21 2.48165 21C3.85001 21 4.9633 19.8859 4.9633 18.5166C4.9633 17.1473 3.85001 16.0332 2.48165 16.0332ZM2.48165 19.7695C1.79177 19.7695 1.23047 19.2074 1.23047 18.5166C1.23047 17.8258 1.79177 17.2637 2.48165 17.2637C3.17153 17.2637 3.73283 17.8258 3.73283 18.5166C3.73283 19.2074 3.17153 19.7695 2.48165 19.7695Z" fill="white"/>
<path d="M13.381 5.31199C13.7203 5.31199 13.9964 5.03542 13.9964 4.69549C13.9964 4.35555 13.7203 4.07898 13.381 4.07898C13.0417 4.07898 12.7656 4.35555 12.7656 4.69549C12.7656 5.03542 13.0417 5.31199 13.381 5.31199Z" fill="white"/>
<path d="M12.9201 12.1061C13.1668 12.4386 13.667 12.4382 13.9119 12.1013L17.147 7.65097C19.5296 4.55425 17.3304 0 13.3816 0C9.45166 0 7.25651 4.5095 9.58254 7.60659C9.59436 7.6237 9.4353 7.40849 12.9201 12.1061ZM13.3816 2.84845C14.3994 2.84845 15.2274 3.67701 15.2274 4.69543C15.2274 5.71385 14.3994 6.5424 13.3816 6.5424C12.3638 6.5424 11.5357 5.71385 11.5357 4.69543C11.5357 3.67701 12.3638 2.84845 13.3816 2.84845Z" fill="white"/>
</svg>
